<mxfile host="app.diagrams.net" modified="2021-10-17T10:21:59.394Z" agent="5.0 (Windows NT 10.0; Win64; x64) AppleWebKit/537.36 (KHTML, like Gecko) Chrome/94.0.4606.81 Safari/537.36 Edg/94.0.992.50" etag="rWW6yavtWhgMasG5XGL4" version="15.5.4" type="github">
  <diagram name="Page-1" id="55a83fd1-7818-8e21-69c5-c3457e3827bb">
    <mxGraphModel dx="1422" dy="794" grid="1" gridSize="10" guides="1" tooltips="1" connect="1" arrows="1" fold="1" page="1" pageScale="1" pageWidth="1100" pageHeight="850" background="none" math="0" shadow="0">
      <root>
        <mxCell id="0" />
        <mxCell id="1" parent="0" />
        <mxCell id="69ecfefc5c41e42c-2" value="Internet" style="image;html=1;labelBackgroundColor=#ffffff;image=img/lib/clip_art/networking/Cloud_128x128.png;rounded=1;shadow=0;comic=0;strokeWidth=2;fontSize=22;labelPosition=center;verticalLabelPosition=top;align=center;verticalAlign=bottom;" parent="1" vertex="1">
          <mxGeometry x="470" y="140" width="80" height="80" as="geometry" />
        </mxCell>
        <mxCell id="69ecfefc5c41e42c-19" style="edgeStyle=none;rounded=0;html=1;labelBackgroundColor=none;endArrow=none;strokeWidth=2;fontFamily=Verdana;fontSize=22" parent="1" target="69ecfefc5c41e42c-2" edge="1">
          <mxGeometry relative="1" as="geometry">
            <mxPoint x="510" y="290" as="sourcePoint" />
          </mxGeometry>
        </mxCell>
        <mxCell id="6qquT5Q0N8u8w7L4h6Uj-1" value="" style="fontColor=#0066CC;verticalAlign=top;verticalLabelPosition=bottom;labelPosition=center;align=center;html=1;outlineConnect=0;fillColor=#CCCCCC;strokeColor=#6881B3;gradientColor=none;gradientDirection=north;strokeWidth=2;shape=mxgraph.networks.router;" vertex="1" parent="1">
          <mxGeometry x="460" y="295" width="100" height="30" as="geometry" />
        </mxCell>
        <mxCell id="6qquT5Q0N8u8w7L4h6Uj-2" value="" style="fontColor=#0066CC;verticalAlign=top;verticalLabelPosition=bottom;labelPosition=center;align=center;html=1;outlineConnect=0;fillColor=#CCCCCC;strokeColor=#6881B3;gradientColor=none;gradientDirection=north;strokeWidth=2;shape=mxgraph.networks.server;" vertex="1" parent="1">
          <mxGeometry x="390" y="470" width="90" height="100" as="geometry" />
        </mxCell>
        <mxCell id="6qquT5Q0N8u8w7L4h6Uj-3" value="" style="fontColor=#0066CC;verticalAlign=top;verticalLabelPosition=bottom;labelPosition=center;align=center;html=1;outlineConnect=0;fillColor=#CCCCCC;strokeColor=#6881B3;gradientColor=none;gradientDirection=north;strokeWidth=2;shape=mxgraph.networks.web_server;" vertex="1" parent="1">
          <mxGeometry x="540" y="467.5" width="105" height="105" as="geometry" />
        </mxCell>
        <mxCell id="6qquT5Q0N8u8w7L4h6Uj-4" value="" style="fontColor=#0066CC;verticalAlign=top;verticalLabelPosition=bottom;labelPosition=center;align=center;html=1;outlineConnect=0;fillColor=#CCCCCC;strokeColor=#6881B3;gradientColor=none;gradientDirection=north;strokeWidth=2;shape=mxgraph.networks.server_storage;" vertex="1" parent="1">
          <mxGeometry x="700" y="470" width="105" height="105" as="geometry" />
        </mxCell>
        <mxCell id="6qquT5Q0N8u8w7L4h6Uj-5" value="" style="fontColor=#0066CC;verticalAlign=top;verticalLabelPosition=bottom;labelPosition=center;align=center;html=1;outlineConnect=0;fillColor=#CCCCCC;strokeColor=#6881B3;gradientColor=none;gradientDirection=north;strokeWidth=2;shape=mxgraph.networks.server;" vertex="1" parent="1">
          <mxGeometry x="220" y="467.5" width="90" height="100" as="geometry" />
        </mxCell>
        <mxCell id="6qquT5Q0N8u8w7L4h6Uj-10" value="" style="endArrow=none;html=1;rounded=0;" edge="1" parent="1" source="6qquT5Q0N8u8w7L4h6Uj-5" target="6qquT5Q0N8u8w7L4h6Uj-1">
          <mxGeometry width="50" height="50" relative="1" as="geometry">
            <mxPoint x="520" y="430" as="sourcePoint" />
            <mxPoint x="570" y="380" as="targetPoint" />
          </mxGeometry>
        </mxCell>
        <mxCell id="6qquT5Q0N8u8w7L4h6Uj-11" value="" style="endArrow=none;html=1;rounded=0;" edge="1" parent="1" source="6qquT5Q0N8u8w7L4h6Uj-2" target="6qquT5Q0N8u8w7L4h6Uj-1">
          <mxGeometry width="50" height="50" relative="1" as="geometry">
            <mxPoint x="440" y="440" as="sourcePoint" />
            <mxPoint x="490" y="390" as="targetPoint" />
            <Array as="points">
              <mxPoint x="470" y="360" />
            </Array>
          </mxGeometry>
        </mxCell>
        <mxCell id="6qquT5Q0N8u8w7L4h6Uj-14" value="" style="endArrow=none;html=1;rounded=0;startArrow=none;" edge="1" parent="1" source="6qquT5Q0N8u8w7L4h6Uj-30" target="6qquT5Q0N8u8w7L4h6Uj-1">
          <mxGeometry width="50" height="50" relative="1" as="geometry">
            <mxPoint x="520" y="430" as="sourcePoint" />
            <mxPoint x="570" y="380" as="targetPoint" />
          </mxGeometry>
        </mxCell>
        <mxCell id="6qquT5Q0N8u8w7L4h6Uj-15" value="" style="endArrow=none;html=1;rounded=0;" edge="1" parent="1" source="6qquT5Q0N8u8w7L4h6Uj-4" target="6qquT5Q0N8u8w7L4h6Uj-1">
          <mxGeometry width="50" height="50" relative="1" as="geometry">
            <mxPoint x="645" y="420" as="sourcePoint" />
            <mxPoint x="695" y="370" as="targetPoint" />
            <Array as="points">
              <mxPoint x="650" y="370" />
            </Array>
          </mxGeometry>
        </mxCell>
        <mxCell id="6qquT5Q0N8u8w7L4h6Uj-16" value="&lt;span id=&quot;docs-internal-guid-975c83f2-7fff-102c-fdac-8640c2c8978f&quot;&gt;&lt;span style=&quot;font-size: 11pt ; font-family: &amp;#34;arial&amp;#34; ; background-color: transparent ; vertical-align: baseline&quot;&gt;11.12.123.250/30&lt;/span&gt;&lt;/span&gt;" style="text;html=1;align=center;verticalAlign=middle;resizable=0;points=[];autosize=1;strokeColor=none;fillColor=none;" vertex="1" parent="1">
          <mxGeometry x="510" y="260" width="130" height="20" as="geometry" />
        </mxCell>
        <mxCell id="6qquT5Q0N8u8w7L4h6Uj-17" value="&lt;span id=&quot;docs-internal-guid-83297309-7fff-609a-c1c3-be304c6b91bc&quot;&gt;&lt;span style=&quot;font-size: 11pt ; font-family: &amp;#34;arial&amp;#34; ; background-color: transparent ; vertical-align: baseline&quot;&gt;172.20.2.20&lt;/span&gt;&lt;/span&gt;" style="text;html=1;align=center;verticalAlign=middle;resizable=0;points=[];autosize=1;strokeColor=none;fillColor=none;" vertex="1" parent="1">
          <mxGeometry x="220" y="440" width="90" height="20" as="geometry" />
        </mxCell>
        <mxCell id="6qquT5Q0N8u8w7L4h6Uj-18" value="&lt;span id=&quot;docs-internal-guid-83297309-7fff-609a-c1c3-be304c6b91bc&quot;&gt;&lt;span style=&quot;font-size: 11pt ; font-family: &amp;#34;arial&amp;#34; ; background-color: transparent ; vertical-align: baseline&quot;&gt;172.20.2.21&lt;/span&gt;&lt;/span&gt;" style="text;html=1;align=center;verticalAlign=middle;resizable=0;points=[];autosize=1;strokeColor=none;fillColor=none;" vertex="1" parent="1">
          <mxGeometry x="360" y="447.5" width="90" height="20" as="geometry" />
        </mxCell>
        <mxCell id="6qquT5Q0N8u8w7L4h6Uj-19" value="&lt;span id=&quot;docs-internal-guid-83297309-7fff-609a-c1c3-be304c6b91bc&quot;&gt;&lt;span style=&quot;font-size: 11pt ; font-family: &amp;#34;arial&amp;#34; ; background-color: transparent ; vertical-align: baseline&quot;&gt;172.20.2.22&lt;br&gt;&lt;/span&gt;&lt;/span&gt;" style="text;html=1;align=center;verticalAlign=middle;resizable=0;points=[];autosize=1;strokeColor=none;fillColor=none;" vertex="1" parent="1">
          <mxGeometry x="570" y="440" width="90" height="20" as="geometry" />
        </mxCell>
        <mxCell id="6qquT5Q0N8u8w7L4h6Uj-20" value="&lt;span id=&quot;docs-internal-guid-83297309-7fff-609a-c1c3-be304c6b91bc&quot;&gt;&lt;span style=&quot;font-size: 11pt ; font-family: &amp;#34;arial&amp;#34; ; background-color: transparent ; vertical-align: baseline&quot;&gt;172.20.2.23&lt;br&gt;&lt;/span&gt;&lt;/span&gt;" style="text;html=1;align=center;verticalAlign=middle;resizable=0;points=[];autosize=1;strokeColor=none;fillColor=none;" vertex="1" parent="1">
          <mxGeometry x="707.5" y="440" width="90" height="20" as="geometry" />
        </mxCell>
        <mxCell id="6qquT5Q0N8u8w7L4h6Uj-21" value="Port 1" style="text;html=1;align=center;verticalAlign=middle;resizable=0;points=[];autosize=1;strokeColor=none;fillColor=none;" vertex="1" parent="1">
          <mxGeometry x="460" y="230" width="50" height="20" as="geometry" />
        </mxCell>
        <mxCell id="6qquT5Q0N8u8w7L4h6Uj-22" value="Port 2" style="text;html=1;align=center;verticalAlign=middle;resizable=0;points=[];autosize=1;strokeColor=none;fillColor=none;" vertex="1" parent="1">
          <mxGeometry x="400" y="350" width="50" height="20" as="geometry" />
        </mxCell>
        <mxCell id="6qquT5Q0N8u8w7L4h6Uj-23" value="Port 3" style="text;html=1;align=center;verticalAlign=middle;resizable=0;points=[];autosize=1;strokeColor=none;fillColor=none;" vertex="1" parent="1">
          <mxGeometry x="410" y="400" width="50" height="20" as="geometry" />
        </mxCell>
        <mxCell id="6qquT5Q0N8u8w7L4h6Uj-24" value="Port 4" style="text;html=1;align=center;verticalAlign=middle;resizable=0;points=[];autosize=1;strokeColor=none;fillColor=none;" vertex="1" parent="1">
          <mxGeometry x="502.5" y="400" width="50" height="20" as="geometry" />
        </mxCell>
        <mxCell id="6qquT5Q0N8u8w7L4h6Uj-25" value="Port 5" style="text;html=1;align=center;verticalAlign=middle;resizable=0;points=[];autosize=1;strokeColor=none;fillColor=none;" vertex="1" parent="1">
          <mxGeometry x="632.5" y="340" width="50" height="20" as="geometry" />
        </mxCell>
        <mxCell id="6qquT5Q0N8u8w7L4h6Uj-26" value="Server 1&lt;br&gt;PostgreSQL" style="text;html=1;align=center;verticalAlign=middle;resizable=0;points=[];autosize=1;strokeColor=none;fillColor=none;" vertex="1" parent="1">
          <mxGeometry x="225" y="575" width="80" height="30" as="geometry" />
        </mxCell>
        <mxCell id="6qquT5Q0N8u8w7L4h6Uj-27" value="Server 2&lt;br&gt;Stream Server" style="text;html=1;align=center;verticalAlign=middle;resizable=0;points=[];autosize=1;strokeColor=none;fillColor=none;" vertex="1" parent="1">
          <mxGeometry x="390" y="575" width="90" height="30" as="geometry" />
        </mxCell>
        <mxCell id="6qquT5Q0N8u8w7L4h6Uj-28" value="Server 3&lt;br&gt;Web Server" style="text;html=1;align=center;verticalAlign=middle;resizable=0;points=[];autosize=1;strokeColor=none;fillColor=none;" vertex="1" parent="1">
          <mxGeometry x="552.5" y="575" width="80" height="30" as="geometry" />
        </mxCell>
        <mxCell id="6qquT5Q0N8u8w7L4h6Uj-29" value="Server 4&lt;br&gt;FTP Server" style="text;html=1;align=center;verticalAlign=middle;resizable=0;points=[];autosize=1;strokeColor=none;fillColor=none;" vertex="1" parent="1">
          <mxGeometry x="712.5" y="585" width="80" height="30" as="geometry" />
        </mxCell>
        <mxCell id="6qquT5Q0N8u8w7L4h6Uj-30" value="&lt;span style=&quot;font-family: &amp;#34;arial&amp;#34; ; font-size: 14.6667px&quot;&gt;172.20.2.1/24&lt;/span&gt;" style="text;html=1;align=center;verticalAlign=middle;resizable=0;points=[];autosize=1;strokeColor=none;fillColor=none;" vertex="1" parent="1">
          <mxGeometry x="470" y="340" width="110" height="20" as="geometry" />
        </mxCell>
        <mxCell id="6qquT5Q0N8u8w7L4h6Uj-31" value="" style="endArrow=none;html=1;rounded=0;" edge="1" parent="1" source="6qquT5Q0N8u8w7L4h6Uj-3" target="6qquT5Q0N8u8w7L4h6Uj-30">
          <mxGeometry width="50" height="50" relative="1" as="geometry">
            <mxPoint x="571.875" y="467.5" as="sourcePoint" />
            <mxPoint x="515.8928571428571" y="325" as="targetPoint" />
          </mxGeometry>
        </mxCell>
      </root>
    </mxGraphModel>
  </diagram>
</mxfile>
